<svg xmlns="http://www.w3.org/2000/svg" xmlns:xlink="http://www.w3.org/1999/xlink" xmlns:lucid="lucid" width="1207.21" height="173.42"><g transform="translate(-98.5 -153.37)" lucid:page-tab-id="0_0"><path d="M0 0h1870.87v1322.84H0z" fill="#fff"/><g filter="url(#a)"><path d="M120 194.87a20 20 0 0 1 20-20h275.8a20 20 0 0 1 20 20v90.42a20 20 0 0 1-20 20H140a20 20 0 0 1-20-20z" stroke="#747474" stroke-width="3" fill="#cfe4ff"/><path d="M235 253.2h199.3v3H235z" fill="#e5e5e5"/><use xlink:href="#b" transform="matrix(1,0,0,1,235,219.55) translate(0 20.02)"/></g><path d="M215 232.37c0 20.7-16.8 37.5-37.5 37.5s-37.5-16.8-37.5-37.5 16.8-37.5 37.5-37.5 37.5 16.8 37.5 37.5z" stroke="#000" stroke-opacity="0" fill="#fff"/><path d="M173.8 220.3c1.4-1.5 3.4-2.42 5.6-2.42 2.9 0 5.47 1.64 6.8 4.05 1.18-.53 2.46-.84 3.82-.84 5.25 0 9.53 4.3 9.53 9.6 0 5.32-4.28 9.6-9.53 9.6-.6 0-1.23-.05-1.85-.17-1.2 2.13-3.48 3.55-6.04 3.55-1.1 0-2.16-.25-3.04-.68-1.25 2.84-4.07 4.82-7.33 4.82-3.4 0-6.3-2.16-7.46-5.2-.47.1-.96.16-1.5.16-4.04 0-7.35-3.33-7.35-7.44 0-2.75 1.5-5.16 3.66-6.46-.43-1.02-.7-2.2-.7-3.4 0-4.73 3.84-8.56 8.6-8.56 2.78 0 5.25 1.33 6.8 3.37z" stroke="#000" stroke-opacity="0" fill="#0d9dda"/><g filter="url(#c)"><path d="M984.2 194.87a20 20 0 0 1 20-20h260a20 20 0 0 1 20 20v90.42a20 20 0 0 1-20 20h-260a20 20 0 0 1-20-20z" stroke="#747474" stroke-width="3" fill="#c3f7c8"/><path d="M1099.2 253.2h183.5v3h-183.5z" fill="#e5e5e5"/><use xlink:href="#d" transform="matrix(1,0,0,1,1099.21,219.55) translate(0 20.02)"/></g><path d="M1079.2 232.37c0 20.7-16.8 37.5-37.5 37.5s-37.5-16.8-37.5-37.5 16.8-37.5 37.5-37.5 37.5 16.8 37.5 37.5z" stroke="#000" stroke-opacity="0" fill="#fff"/><path d="M1038 220.3c1.42-1.5 3.4-2.42 5.6-2.42 2.92 0 5.48 1.64 6.8 4.05 1.2-.53 2.47-.84 3.83-.84 5.25 0 9.53 4.3 9.53 9.6 0 5.32-4.28 9.6-9.53 9.6-.6 0-1.23-.05-1.85-.17-1.2 2.13-3.48 3.55-6.04 3.55-1.1 0-2.16-.25-3.04-.68-1.24 2.84-4.06 4.82-7.32 4.82-3.4 0-6.3-2.16-7.46-5.2-.48.1-.97.16-1.5.16-4.05 0-7.36-3.33-7.36-7.44 0-2.75 1.5-5.16 3.66-6.46-.44-1.02-.7-2.2-.7-3.4 0-4.73 3.83-8.56 8.6-8.56 2.77 0 5.24 1.33 6.8 3.37z" stroke="#000" stroke-opacity="0" fill="#0d9dda"/><g filter="url(#c)"><path d="M560 194.87a20 20 0 0 1 20-20h260a20 20 0 0 1 20 20v90.42a20 20 0 0 1-20 20H580a20 20 0 0 1-20-20z" stroke="#747474" stroke-width="3" fill="#ffd9d9"/><path d="M675 253.2h183.5v3H675z" fill="#e5e5e5"/><use xlink:href="#e" transform="matrix(1,0,0,1,675,219.55) translate(0 20.02)"/></g><path d="M655 232.37c0 20.7-16.8 37.5-37.5 37.5s-37.5-16.8-37.5-37.5 16.8-37.5 37.5-37.5 37.5 16.8 37.5 37.5z" stroke="#000" stroke-opacity="0" fill="#fff"/><path d="M613.8 220.3c1.4-1.5 3.4-2.42 5.6-2.42 2.9 0 5.47 1.64 6.8 4.05 1.18-.53 2.46-.84 3.82-.84 5.25 0 9.53 4.3 9.53 9.6 0 5.32-4.28 9.6-9.53 9.6-.6 0-1.23-.05-1.85-.17-1.2 2.13-3.48 3.55-6.04 3.55-1.1 0-2.16-.25-3.04-.68-1.25 2.84-4.07 4.82-7.33 4.82-3.4 0-6.3-2.16-7.46-5.2-.47.1-.96.16-1.48.16-4.06 0-7.37-3.33-7.37-7.44 0-2.75 1.5-5.16 3.66-6.46-.43-1.02-.7-2.2-.7-3.4 0-4.73 3.84-8.56 8.6-8.56 2.78 0 5.25 1.33 6.8 3.37z" stroke="#000" stroke-opacity="0" fill="#0d9dda"/><path d="M437.8 240.08H542.1" stroke="#3a414a" fill="none"/><path d="M437.8 240.58h-.5v-1h.5z" stroke="#3a414a" stroke-width=".05" fill="#3a414a"/><path d="M556.88 240.08l-14.26 4.64v-9.27z" stroke="#3a414a" fill="#3a414a"/><path d="M862 240.08h104.33" stroke="#3a414a" fill="none"/><path d="M862 240.58h-.5v-1h.5z" stroke="#3a414a" stroke-width=".05" fill="#3a414a"/><path d="M981.1 240.08l-14.27 4.64v-9.27z" stroke="#3a414a" fill="#3a414a"/><defs><path d="M259-99h83V0H48v-99h83v-513H48v-96h294v96h-83v513" id="f"/><path d="M858 0H730c0-185 5-375 1-557L513 0h-98c-73-185-142-374-217-557l4 557H80v-708h192c65 176 127 355 195 528l198-528h193V0" id="g"/><path d="M335-708c157 0 270 77 267 237-3 159-110 238-267 242H211V0H80v-708h255zm134 238c0-136-122-140-259-133v268h113c83 0 146-47 146-135" id="h"/><path d="M211-109h306V0H80v-708h131v599" id="i"/><path d="M527-603H211v189h270v101H211v206h333V0H80v-708h447v105" id="j"/><path d="M80-708h149c118 176 232 354 352 528l-3-528h121V0H550C432-176 318-355 198-529l4 529H80v-708" id="k"/><path d="M561-598H348V0H217v-598H4v-110h557v110" id="l"/><path d="M479-153H191L134 0H-3l272-708h135L675 0H533zM226-253h219L336-574" id="m"/><path d="M406 19C174 19 44-123 44-354s130-373 362-373 363 142 363 373S638 19 406 19zm0-113c155 0 229-105 229-260s-74-260-229-260c-154 0-228 106-228 260S252-94 406-94" id="n"/><g id="b"><use transform="matrix(0.02,0,0,0.02,0,0)" xlink:href="#f"/><use transform="matrix(0.02,0,0,0.02,7.8,0)" xlink:href="#g"/><use transform="matrix(0.02,0,0,0.02,26.560000000000002,0)" xlink:href="#h"/><use transform="matrix(0.02,0,0,0.02,39.120000000000005,0)" xlink:href="#i"/><use transform="matrix(0.02,0,0,0.02,49.54000000000001,0)" xlink:href="#j"/><use transform="matrix(0.02,0,0,0.02,60.9,0)" xlink:href="#g"/><use transform="matrix(0.02,0,0,0.02,79.66000000000001,0)" xlink:href="#j"/><use transform="matrix(0.02,0,0,0.02,91.02,0)" xlink:href="#k"/><use transform="matrix(0.02,0,0,0.02,106.60000000000001,0)" xlink:href="#l"/><use transform="matrix(0.02,0,0,0.02,117.9,0)" xlink:href="#m"/><use transform="matrix(0.02,0,0,0.02,130.16,0)" xlink:href="#l"/><use transform="matrix(0.02,0,0,0.02,141.46,0)" xlink:href="#f"/><use transform="matrix(0.02,0,0,0.02,148.96,0)" xlink:href="#n"/><use transform="matrix(0.02,0,0,0.02,165.20000000000002,0)" xlink:href="#k"/></g><filter id="a" filterUnits="objectBoundingBox" x="-.02" y="-.02" width="1.03" height="1.08"><feOffset result="offOut" in="SourceAlpha" dy="3"/><feGaussianBlur result="blurOut" in="offOut" stdDeviation="2.5"/><feColorMatrix result="colorOut" in="blurOut" values="0 0 0 0 0.018823529411764708 0 0 0 0 0.018823529411764708 0 0 0 0 0.018823529411764708 0 0 0 0.2 0"/><feBlend in="SourceGraphic" in2="colorOut"/></filter><path d="M328-708c153-1 267 84 267 237 0 100-48 168-143 205L621 0H471L331-240H211V0H80v-708h248zm132 237c0-87-59-132-141-132H210v263h111c82 0 139-45 139-131" id="o"/><path d="M321-708c238 0 378 113 376 353C695-123 558 0 326 0H80v-708h241zm241 353c0-168-80-245-246-246H210v493h103c166-1 249-79 249-247" id="p"/><g id="d"><use transform="matrix(0.02,0,0,0.02,0,0)" xlink:href="#h"/><use transform="matrix(0.02,0,0,0.02,12.56,0)" xlink:href="#o"/><use transform="matrix(0.02,0,0,0.02,25.32,0)" xlink:href="#n"/><use transform="matrix(0.02,0,0,0.02,41.56,0)" xlink:href="#p"/></g><filter id="c" filterUnits="objectBoundingBox" x="-.02" y="-.02" width="1.03" height="1.08"><feOffset result="offOut" in="SourceAlpha" dy="3"/><feGaussianBlur result="blurOut" in="offOut" stdDeviation="2.5"/><feColorMatrix result="colorOut" in="blurOut" values="0 0 0 0 0.018823529411764708 0 0 0 0 0.018823529411764708 0 0 0 0 0.018823529411764708 0 0 0 0.2 0"/><feBlend in="SourceGraphic" in2="colorOut"/></filter><path d="M540-200C550 52 170 69 26-64l63-83c71 67 317 99 317-48 0-96-79-102-162-127-111-33-193-77-195-204-4-228 334-244 479-129l-59 85c-50-30-95-49-167-50-67 0-123 23-123 86 0 82 64 84 147 110 123 38 208 79 214 224" id="q"/><path d="M405 19C170 19 44-121 44-355c0-230 129-369 360-372 102-1 196 37 249 90l-74 84c-40-35-100-62-170-62-157-2-231 105-231 260 0 177 76 265 229 265 49 0 97-10 142-29v-158H404v-100h266v329C590-3 502 19 405 19" id="r"/><g id="e"><use transform="matrix(0.02,0,0,0.02,0,0)" xlink:href="#l"/><use transform="matrix(0.02,0,0,0.02,11.3,0)" xlink:href="#j"/><use transform="matrix(0.02,0,0,0.02,22.66,0)" xlink:href="#q"/><use transform="matrix(0.02,0,0,0.02,33.94,0)" xlink:href="#l"/><use transform="matrix(0.02,0,0,0.02,45.239999999999995,0)" xlink:href="#f"/><use transform="matrix(0.02,0,0,0.02,53.03999999999999,0)" xlink:href="#k"/><use transform="matrix(0.02,0,0,0.02,68.61999999999999,0)" xlink:href="#r"/></g></defs></g></svg>