<svg xmlns="http://www.w3.org/2000/svg" xmlns:xlink="http://www.w3.org/1999/xlink" xmlns:lucid="lucid" width="1652.79" height="613.42"><g transform="translate(-118.49999999999997 -338.5)" lucid:page-tab-id="E-WhL5nEe.PG"><path d="M0 0h1870.87v1322.84H0z" fill="#fff"/><g filter="url(#a)"><path d="M140 380a20 20 0 0 1 20-20h275.8a20 20 0 0 1 20 20v90.42a20 20 0 0 1-20 20H160a20 20 0 0 1-20-20z" stroke="#747474" stroke-width="3" fill="#cfe4ff"/><path d="M255 438.32h199.3v3H255zM235 417.5c0 20.7-16.8 37.5-37.5 37.5S160 438.2 160 417.5s16.8-37.5 37.5-37.5 37.5 16.8 37.5 37.5z" fill="#e5e5e5"/><use xlink:href="#b" transform="matrix(1,0,0,1,254.99999999999997,404.68) translate(0 20.02)"/><use xlink:href="#c" transform="matrix(1,0,0,1,254.99999999999997,404.68) translate(83.74 20.02)"/></g><path d="M235 417.5c0 20.7-16.8 37.5-37.5 37.5S160 438.2 160 417.5s16.8-37.5 37.5-37.5 37.5 16.8 37.5 37.5z" stroke="#000" stroke-opacity="0" fill="#fff"/><path d="M193.8 405.42c1.4-1.5 3.4-2.4 5.6-2.4 2.9 0 5.47 1.63 6.8 4.04 1.18-.53 2.46-.84 3.82-.84 5.25 0 9.53 4.3 9.53 9.6 0 5.33-4.28 9.62-9.53 9.62-.6 0-1.23-.06-1.85-.18-1.2 2.13-3.48 3.55-6.04 3.55-1.1 0-2.16-.24-3.04-.67-1.25 2.84-4.07 4.82-7.33 4.82-3.4 0-6.3-2.16-7.46-5.2-.47.1-.96.16-1.5.16-4.04 0-7.35-3.32-7.35-7.43 0-2.75 1.5-5.16 3.66-6.46-.43-1-.7-2.2-.7-3.4 0-4.72 3.84-8.55 8.6-8.55 2.78 0 5.25 1.33 6.8 3.37z" stroke="#000" stroke-opacity="0" fill="#0d9dda"/><g filter="url(#a)"><path d="M581.86 600a20 20 0 0 1 20-20h275.8a20 20 0 0 1 20 20v90.42a20 20 0 0 1-20 20h-275.8a20 20 0 0 1-20-20z" stroke="#747474" stroke-width="3" fill="url(#d)"/><path d="M696.86 658.32h199.3v3h-199.3zM676.86 637.5c0 20.7-16.8 37.5-37.5 37.5s-37.5-16.8-37.5-37.5 16.8-37.5 37.5-37.5 37.5 16.8 37.5 37.5z" fill="#e5e5e5"/><use xlink:href="#e" transform="matrix(1,0,0,1,696.8595833333334,624.68) translate(0 20.02)"/><use xlink:href="#f" transform="matrix(1,0,0,1,696.8595833333334,624.68) translate(74.46 20.02)"/><use xlink:href="#g" transform="matrix(1,0,0,1,696.8595833333334,624.68) translate(90.74 20.02)"/></g><path d="M676.86 637.5c0 20.7-16.8 37.5-37.5 37.5s-37.5-16.8-37.5-37.5 16.8-37.5 37.5-37.5 37.5 16.8 37.5 37.5z" stroke="#000" stroke-opacity="0" fill="#fff"/><path d="M635.65 625.42c1.42-1.5 3.4-2.4 5.6-2.4 2.92 0 5.47 1.63 6.8 4.04 1.2-.53 2.47-.84 3.83-.84 5.25 0 9.53 4.3 9.53 9.6 0 5.33-4.27 9.62-9.52 9.62-.6 0-1.23-.06-1.85-.18-1.2 2.13-3.48 3.55-6.04 3.55-1.1 0-2.17-.24-3.05-.67-1.24 2.84-4.06 4.82-7.32 4.82-3.4 0-6.3-2.16-7.46-5.2-.48.1-.97.16-1.5.16-4.05 0-7.36-3.32-7.36-7.43 0-2.75 1.5-5.16 3.67-6.46-.44-1-.7-2.2-.7-3.4 0-4.72 3.83-8.55 8.6-8.55 2.77 0 5.24 1.33 6.78 3.37z" stroke="#000" stroke-opacity="0" fill="#0d9dda"/><g filter="url(#h)"><path d="M1449.8 600a20 20 0 0 1 20-20h260a20 20 0 0 1 20 20v90.42a20 20 0 0 1-20 20h-260a20 20 0 0 1-20-20z" stroke="#747474" stroke-width="3" fill="#c3f7c8"/><path d="M1564.8 658.32h183.5v3h-183.5zM1544.8 637.5c0 20.7-16.8 37.5-37.5 37.5-20.72 0-37.5-16.8-37.5-37.5s16.78-37.5 37.5-37.5c20.7 0 37.5 16.8 37.5 37.5z" fill="#e5e5e5"/><use xlink:href="#i" transform="matrix(1,0,0,1,1564.7887500000002,624.68) translate(0 20.02)"/></g><path d="M1544.8 637.5c0 20.7-16.8 37.5-37.5 37.5s-37.5-16.8-37.5-37.5 16.8-37.5 37.5-37.5 37.5 16.8 37.5 37.5z" stroke="#000" stroke-opacity="0" fill="#fff"/><path d="M1503.58 625.42c1.42-1.5 3.4-2.4 5.6-2.4 2.92 0 5.47 1.63 6.8 4.04 1.2-.53 2.47-.84 3.83-.84 5.26 0 9.54 4.3 9.54 9.6 0 5.33-4.28 9.62-9.53 9.62-.6 0-1.22-.06-1.84-.18-1.2 2.13-3.48 3.55-6.04 3.55-1.1 0-2.16-.24-3.04-.67-1.24 2.84-4.06 4.82-7.32 4.82-3.4 0-6.3-2.16-7.46-5.2-.48.1-.97.16-1.5.16-4.05 0-7.36-3.32-7.36-7.43 0-2.75 1.5-5.16 3.66-6.46-.44-1-.7-2.2-.7-3.4 0-4.72 3.83-8.55 8.6-8.55 2.77 0 5.24 1.33 6.78 3.37z" stroke="#000" stroke-opacity="0" fill="#0d9dda"/><g filter="url(#h)"><path d="M1023.72 600a20 20 0 0 1 20-20h260a20 20 0 0 1 20 20v90.42a20 20 0 0 1-20 20h-260a20 20 0 0 1-20-20z" stroke="#747474" stroke-width="3" fill="#ffd9d9"/><path d="M1138.72 658.32h183.5v3h-183.5zM1118.72 637.5c0 20.7-16.8 37.5-37.5 37.5s-37.5-16.8-37.5-37.5 16.8-37.5 37.5-37.5 37.5 16.8 37.5 37.5z" fill="#e5e5e5"/><use xlink:href="#j" transform="matrix(1,0,0,1,1138.7191666666668,624.68) translate(0 20.02)"/><use xlink:href="#f" transform="matrix(1,0,0,1,1138.7191666666668,624.68) translate(34.68000000000001 20.02)"/><use xlink:href="#k" transform="matrix(1,0,0,1,1138.7191666666668,624.68) translate(50.96000000000001 20.02)"/></g><path d="M1118.72 637.5c0 20.7-16.8 37.5-37.5 37.5s-37.5-16.8-37.5-37.5 16.8-37.5 37.5-37.5 37.5 16.8 37.5 37.5z" stroke="#000" stroke-opacity="0" fill="#fff"/><path d="M1077.52 625.42c1.4-1.5 3.4-2.4 5.6-2.4 2.9 0 5.46 1.63 6.8 4.04 1.18-.53 2.46-.84 3.82-.84 5.25 0 9.53 4.3 9.53 9.6 0 5.33-4.28 9.62-9.53 9.62-.6 0-1.23-.06-1.85-.18-1.2 2.13-3.5 3.55-6.05 3.55-1.1 0-2.16-.24-3.04-.67-1.23 2.84-4.05 4.82-7.3 4.82-3.4 0-6.32-2.16-7.47-5.2-.48.1-.97.16-1.5.16-4.05 0-7.36-3.32-7.36-7.43 0-2.75 1.5-5.16 3.66-6.46-.44-1-.7-2.2-.7-3.4 0-4.72 3.83-8.55 8.6-8.55 2.77 0 5.24 1.33 6.8 3.37z" stroke="#000" stroke-opacity="0" fill="#0d9dda"/><g filter="url(#a)"><path d="M140 600a20 20 0 0 1 20-20h275.8a20 20 0 0 1 20 20v90.42a20 20 0 0 1-20 20H160a20 20 0 0 1-20-20z" stroke="#747474" stroke-width="3" fill="#cfe4ff"/><path d="M255 658.32h199.3v3H255zM235 637.5c0 20.7-16.8 37.5-37.5 37.5S160 658.2 160 637.5s16.8-37.5 37.5-37.5 37.5 16.8 37.5 37.5z" fill="#e5e5e5"/><use xlink:href="#l" transform="matrix(1,0,0,1,255.00000000000009,624.68) translate(0 20.02)"/><use xlink:href="#m" transform="matrix(1,0,0,1,255.00000000000009,624.68) translate(44.660000000000004 20.02)"/></g><path d="M235 637.5c0 20.7-16.8 37.5-37.5 37.5S160 658.2 160 637.5s16.8-37.5 37.5-37.5 37.5 16.8 37.5 37.5z" stroke="#000" stroke-opacity="0" fill="#fff"/><path d="M193.8 625.42c1.4-1.5 3.4-2.4 5.6-2.4 2.9 0 5.47 1.63 6.8 4.04 1.18-.53 2.46-.84 3.82-.84 5.25 0 9.53 4.3 9.53 9.6 0 5.33-4.28 9.62-9.53 9.62-.6 0-1.23-.06-1.85-.18-1.2 2.13-3.48 3.55-6.04 3.55-1.1 0-2.16-.24-3.04-.67-1.25 2.84-4.07 4.82-7.33 4.82-3.4 0-6.3-2.16-7.46-5.2-.47.1-.96.16-1.5.16-4.04 0-7.35-3.32-7.35-7.43 0-2.75 1.5-5.16 3.66-6.46-.43-1-.7-2.2-.7-3.4 0-4.72 3.84-8.55 8.6-8.55 2.78 0 5.25 1.33 6.8 3.37z" stroke="#000" stroke-opacity="0" fill="#0d9dda"/><g filter="url(#a)"><path d="M140 820a20 20 0 0 1 20-20h275.8a20 20 0 0 1 20 20v90.42a20 20 0 0 1-20 20H160a20 20 0 0 1-20-20z" stroke="#747474" stroke-width="3" fill="#cfe4ff"/><path d="M255 878.32h199.3v3H255zM235 857.5c0 20.7-16.8 37.5-37.5 37.5S160 878.2 160 857.5s16.8-37.5 37.5-37.5 37.5 16.8 37.5 37.5z" fill="#e5e5e5"/><use xlink:href="#l" transform="matrix(1,0,0,1,254.99999999999997,844.68) translate(0 20.02)"/><use xlink:href="#n" transform="matrix(1,0,0,1,254.99999999999997,844.68) translate(44.660000000000004 20.02)"/></g><path d="M235 857.5c0 20.7-16.8 37.5-37.5 37.5S160 878.2 160 857.5s16.8-37.5 37.5-37.5 37.5 16.8 37.5 37.5z" stroke="#000" stroke-opacity="0" fill="#fff"/><path d="M193.8 845.42c1.4-1.5 3.4-2.4 5.6-2.4 2.9 0 5.47 1.63 6.8 4.04 1.18-.53 2.46-.84 3.82-.84 5.25 0 9.53 4.3 9.53 9.6 0 5.33-4.28 9.62-9.53 9.62-.6 0-1.23-.06-1.85-.18-1.2 2.13-3.48 3.55-6.04 3.55-1.1 0-2.16-.24-3.04-.67-1.25 2.84-4.07 4.82-7.33 4.82-3.4 0-6.3-2.16-7.46-5.2-.47.1-.96.16-1.5.16-4.04 0-7.35-3.32-7.35-7.43 0-2.75 1.5-5.16 3.66-6.46-.43-1-.7-2.2-.7-3.4 0-4.72 3.84-8.55 8.6-8.55 2.78 0 5.25 1.33 6.8 3.37z" stroke="#000" stroke-opacity="0" fill="#0d9dda"/><path d="M457.8 425.2h55.03a6 6 0 0 1 6 6v208a6 6 0 0 0 6 6h39.15" stroke="#3a414a" fill="none"/><path d="M457.8 425.7h-.5v-1h.5z" stroke="#3a414a" stroke-width=".05" fill="#3a414a"/><path d="M578.74 645.2l-14.26 4.65v-9.27z" stroke="#3a414a" fill="#3a414a"/><path d="M457.8 645.2h106.18" stroke="#3a414a" fill="none"/><path d="M457.8 645.7h-.5v-1h.5z" stroke="#3a414a" stroke-width=".05" fill="#3a414a"/><path d="M578.74 645.2l-14.26 4.65v-9.27z" stroke="#3a414a" fill="#3a414a"/><path d="M457.8 865.2h55.03a6 6 0 0 0 6-6v-208a6 6 0 0 1 6-6h39.15" stroke="#3a414a" fill="none"/><path d="M457.8 865.7h-.5v-1h.5z" stroke="#3a414a" stroke-width=".05" fill="#3a414a"/><path d="M578.74 645.2l-14.26 4.65v-9.27z" stroke="#3a414a" fill="#3a414a"/><path d="M899.65 645.2h106.2" stroke="#3a414a" fill="none"/><path d="M899.66 645.7h-.5v-1h.5z" stroke="#3a414a" stroke-width=".05" fill="#3a414a"/><path d="M1020.6 645.2l-14.26 4.65v-9.27z" stroke="#3a414a" fill="#3a414a"/><path d="M1325.72 645.2h106.18" stroke="#3a414a" fill="none"/><path d="M1325.73 645.7h-.5v-1h.5z" stroke="#3a414a" stroke-width=".05" fill="#3a414a"/><path d="M1446.67 645.2l-14.27 4.65v-9.27z" stroke="#3a414a" fill="#3a414a"/><defs><path d="M44-355c0-231 126-370 357-373 102-1 196 37 249 90l-74 84c-41-35-99-61-170-61-157-2-225 105-226 260 0 151 70 260 223 258 77-1 135-32 177-71l79 86C603-26 509 20 399 19 169 16 44-126 44-355" id="o"/><path d="M406 19C174 19 44-123 44-354s130-373 362-373 363 142 363 373S638 19 406 19zm0-113c155 0 229-105 229-260s-74-260-229-260c-154 0-228 106-228 260S252-94 406-94" id="p"/><path d="M80-708h149c118 176 232 354 352 528l-3-528h121V0H550C432-176 318-355 198-529l4 529H80v-708" id="q"/><path d="M527-601H211v197h275v107H211V0H80v-708h447v107" id="r"/><path d="M259-99h83V0H48v-99h83v-513H48v-96h294v96h-83v513" id="s"/><path d="M405 19C170 19 44-121 44-355c0-230 129-369 360-372 102-1 196 37 249 90l-74 84c-40-35-100-62-170-62-157-2-231 105-231 260 0 177 76 265 229 265 49 0 97-10 142-29v-158H404v-100h266v329C590-3 502 19 405 19" id="t"/><g id="b"><use transform="matrix(0.02,0,0,0.02,0,0)" xlink:href="#o"/><use transform="matrix(0.02,0,0,0.02,13.34,0)" xlink:href="#p"/><use transform="matrix(0.02,0,0,0.02,29.580000000000002,0)" xlink:href="#q"/><use transform="matrix(0.02,0,0,0.02,45.160000000000004,0)" xlink:href="#r"/><use transform="matrix(0.02,0,0,0.02,56.02,0)" xlink:href="#s"/><use transform="matrix(0.02,0,0,0.02,63.52,0)" xlink:href="#t"/></g><path d="M670 0H538v-311H211V0H80v-708h131v292h327v-292h132V0" id="u"/><path d="M479-153H191L134 0H-3l272-708h135L675 0H533zM226-253h219L336-574" id="v"/><path d="M527-603H211v189h270v101H211v206h333V0H80v-708h447v105" id="w"/><path d="M540-200C550 52 170 69 26-64l63-83c71 67 317 99 317-48 0-96-79-102-162-127-111-33-193-77-195-204-4-228 334-244 479-129l-59 85c-50-30-95-49-167-50-67 0-123 23-123 86 0 82 64 84 147 110 123 38 208 79 214 224" id="x"/><g id="c"><use transform="matrix(0.02,0,0,0.02,0,0)" xlink:href="#o"/><use transform="matrix(0.02,0,0,0.02,13.56,0)" xlink:href="#u"/><use transform="matrix(0.02,0,0,0.02,28.54,0)" xlink:href="#v"/><use transform="matrix(0.02,0,0,0.02,42,0)" xlink:href="#q"/><use transform="matrix(0.02,0,0,0.02,57.58,0)" xlink:href="#t"/><use transform="matrix(0.02,0,0,0.02,72.42,0)" xlink:href="#w"/><use transform="matrix(0.02,0,0,0.02,83.78,0)" xlink:href="#x"/></g><filter id="a" filterUnits="objectBoundingBox" x="-.02" y="-.02" width="1.03" height="1.08"><feOffset result="offOut" in="SourceAlpha" dy="3"/><feGaussianBlur result="blurOut" in="offOut" stdDeviation="2.5"/><feColorMatrix result="colorOut" in="blurOut" values="0 0 0 0 0.018823529411764708 0 0 0 0 0.018823529411764708 0 0 0 0 0.018823529411764708 0 0 0 0.2 0"/><feBlend in="SourceGraphic" in2="colorOut"/></filter><linearGradient gradientUnits="userSpaceOnUse" id="d" x1="581.86" y1="710.42" x2="897.65" y2="710.42"><stop offset="47.58%" stop-color="#ffd6f5"/><stop offset="48.39%" stop-color="#ced4db"/><stop offset="50.4%" stop-color="#ffd9d9"/></linearGradient><path d="M858 0H730c0-185 5-375 1-557L513 0h-98c-73-185-142-374-217-557l4 557H80v-708h192c65 176 127 355 195 528l198-528h193V0" id="y"/><path d="M328-708c153-1 267 84 267 237 0 100-48 168-143 205L621 0H471L331-240H211V0H80v-708h248zm132 237c0-87-59-132-141-132H210v263h111c82 0 139-45 139-131" id="z"/><g id="e"><use transform="matrix(0.02,0,0,0.02,0,0)" xlink:href="#y"/><use transform="matrix(0.02,0,0,0.02,18.76,0)" xlink:href="#w"/><use transform="matrix(0.02,0,0,0.02,30.12,0)" xlink:href="#z"/><use transform="matrix(0.02,0,0,0.02,42.88,0)" xlink:href="#t"/><use transform="matrix(0.02,0,0,0.02,57.72,0)" xlink:href="#w"/></g><path d="M440-792L212 88H103l228-880h109" id="A"/><use transform="matrix(0.02,0,0,0.02,0,0)" xlink:href="#A" id="f"/><path d="M321-708c238 0 378 113 376 353C695-123 558 0 326 0H80v-708h241zm241 353c0-168-80-245-246-246H210v493h103c166-1 249-79 249-247" id="B"/><g id="g"><use transform="matrix(0.02,0,0,0.02,0,0)" xlink:href="#B"/><use transform="matrix(0.02,0,0,0.02,14.8,0)" xlink:href="#z"/></g><path d="M335-708c157 0 270 77 267 237-3 159-110 238-267 242H211V0H80v-708h255zm134 238c0-136-122-140-259-133v268h113c83 0 146-47 146-135" id="C"/><g id="i"><use transform="matrix(0.02,0,0,0.02,0,0)" xlink:href="#C"/><use transform="matrix(0.02,0,0,0.02,12.56,0)" xlink:href="#z"/><use transform="matrix(0.02,0,0,0.02,25.32,0)" xlink:href="#p"/><use transform="matrix(0.02,0,0,0.02,41.56,0)" xlink:href="#B"/></g><filter id="h" filterUnits="objectBoundingBox" x="-.02" y="-.02" width="1.03" height="1.08"><feOffset result="offOut" in="SourceAlpha" dy="3"/><feGaussianBlur result="blurOut" in="offOut" stdDeviation="2.5"/><feColorMatrix result="colorOut" in="blurOut" values="0 0 0 0 0.018823529411764708 0 0 0 0 0.018823529411764708 0 0 0 0 0.018823529411764708 0 0 0 0.2 0"/><feBlend in="SourceGraphic" in2="colorOut"/></filter><path d="M485 12c41 67 114 79 228 79v107c-199 1-313-45-368-183C155-12 44-142 44-354c0-231 130-373 362-373s359 142 362 373c3 198-110 339-283 366zM178-354c0 154 74 260 228 260s228-106 228-260-74-260-228-260-228 106-228 260" id="D"/><g id="j"><use transform="matrix(0.02,0,0,0.02,0,0)" xlink:href="#D"/><use transform="matrix(0.02,0,0,0.02,15.840000000000003,0)" xlink:href="#v"/></g><path d="M369 19C188 19 71-79 72-256v-452h131v442c1 116 47 172 166 172s166-56 166-172v-442h131v452C667-79 550 19 369 19" id="E"/><path d="M561-598H348V0H217v-598H4v-110h557v110" id="F"/><g id="k"><use transform="matrix(0.02,0,0,0.02,0,0)" xlink:href="#E"/><use transform="matrix(0.02,0,0,0.02,14.36,0)" xlink:href="#v"/><use transform="matrix(0.02,0,0,0.02,26.62,0)" xlink:href="#F"/></g><path d="M391 0H263L-6-708h141l194 559h4l190-559h139" id="G"/><g id="l"><use transform="matrix(0.02,0,0,0.02,0,0)" xlink:href="#B"/><use transform="matrix(0.02,0,0,0.02,14.8,0)" xlink:href="#w"/><use transform="matrix(0.02,0,0,0.02,26.16,0)" xlink:href="#G"/></g><path d="M559-108V0H90v-107h190v-469l-179 86-50-93 242-125h118v600h148" id="H"/><use transform="matrix(0.02,0,0,0.02,0,0)" xlink:href="#H" id="m"/><path d="M292-726c146 0 256 75 256 213 0 119-48 165-120 235-42 41-110 97-203 170h342V0H55v-100c157-141 240-191 331-312 66-88 12-214-105-207-79 5-121 36-167 81l-78-68c66-71 129-120 256-120" id="I"/><use transform="matrix(0.02,0,0,0.02,0,0)" xlink:href="#I" id="n"/></defs></g></svg>