<svg xmlns="http://www.w3.org/2000/svg" xmlns:xlink="http://www.w3.org/1999/xlink" xmlns:lucid="lucid" width="1658" height="425"><g transform="translate(0 -131)" lucid:page-tab-id="vsm1SRByFJYP"><path d="M0 0h1870.87v1322.84H0z" fill="#fff"/><g filter="url(#a)"><path d="M98.65 220a20 20 0 0 1 20-20h260a20 20 0 0 1 20 20v76.32a20 20 0 0 1-20 20h-260a20 20 0 0 1-20-20z" stroke="#747474" stroke-width="3" fill="#cfe4ff"/><path d="M213.65 278.32h183.5v3h-183.5z" fill="#e5e5e5"/><use xlink:href="#b" transform="matrix(1,0,0,1,213.65259888342234,244.67999999999998) translate(0 20.02)"/></g><path d="M193.65 257.5c0 20.7-16.8 37.5-37.5 37.5s-37.5-16.8-37.5-37.5 16.8-37.5 37.5-37.5 37.5 16.8 37.5 37.5z" stroke="#000" stroke-opacity="0" fill="#fff"/><path d="M152.45 245.42c1.4-1.48 3.4-2.4 5.6-2.4 2.9 0 5.47 1.63 6.8 4.04 1.18-.53 2.46-.84 3.83-.84 5.25 0 9.52 4.3 9.52 9.6 0 5.33-4.27 9.62-9.52 9.62-.62 0-1.24-.06-1.86-.18-1.2 2.13-3.48 3.55-6.04 3.55-1.1 0-2.16-.24-3.04-.67-1.24 2.84-4.06 4.82-7.32 4.82-3.4 0-6.3-2.16-7.45-5.2-.5.1-.97.16-1.5.16-4.06 0-7.37-3.32-7.37-7.43 0-2.75 1.5-5.16 3.66-6.46-.44-1-.7-2.2-.7-3.4 0-4.72 3.83-8.55 8.6-8.55 2.78 0 5.25 1.33 6.8 3.37z" stroke="#000" stroke-opacity="0" fill="#0d9dda"/><g filter="url(#a)"><path d="M1297.53 307.16a20 20 0 0 1 20-20h260a20 20 0 0 1 20 20v76.32a20 20 0 0 1-20 20h-260a20 20 0 0 1-20-20z" stroke="#747474" stroke-width="3" fill="#c3f7c8"/><path d="M1412.53 365.48h183.5v3h-183.5z" fill="#e5e5e5"/><use xlink:href="#c" transform="matrix(1,0,0,1,1412.5312077455412,331.8421786340986) translate(0 20.02)"/></g><path d="M1392.53 344.66c0 20.7-16.8 37.5-37.5 37.5s-37.5-16.8-37.5-37.5 16.8-37.5 37.5-37.5 37.5 16.8 37.5 37.5z" stroke="#000" stroke-opacity="0" fill="#fff"/><path d="M1351.33 332.58c1.4-1.48 3.4-2.4 5.6-2.4 2.9 0 5.47 1.63 6.8 4.04 1.18-.53 2.46-.84 3.83-.84 5.24 0 9.52 4.3 9.52 9.6 0 5.33-4.28 9.62-9.52 9.62-.62 0-1.24-.06-1.86-.18-1.2 2.13-3.48 3.55-6.04 3.55-1.1 0-2.16-.25-3.04-.68-1.24 2.83-4.06 4.8-7.32 4.8-3.4 0-6.3-2.15-7.45-5.18-.5.1-.97.15-1.5.15-4.06 0-7.37-3.33-7.37-7.44 0-2.75 1.5-5.16 3.66-6.46-.44-1.02-.7-2.2-.7-3.4 0-4.73 3.83-8.56 8.6-8.56 2.77 0 5.24 1.34 6.8 3.38z" stroke="#000" stroke-opacity="0" fill="#0d9dda"/><g filter="url(#a)"><path d="M942.87 307.16a20 20 0 0 1 20-20h260a20 20 0 0 1 20 20v76.32a20 20 0 0 1-20 20h-260a20 20 0 0 1-20-20z" stroke="#747474" stroke-width="3" fill="#ffd9d9"/><path d="M1057.87 365.48h183.5v3h-183.5z" fill="#e5e5e5"/><use xlink:href="#d" transform="matrix(1,0,0,1,1057.867751645064,331.8421786340986) translate(0 20.02)"/></g><path d="M1037.87 344.66c0 20.7-16.8 37.5-37.5 37.5s-37.5-16.8-37.5-37.5 16.8-37.5 37.5-37.5 37.5 16.8 37.5 37.5z" stroke="#000" stroke-opacity="0" fill="#fff"/><path d="M996.66 332.58c1.42-1.48 3.4-2.4 5.6-2.4 2.9 0 5.47 1.63 6.8 4.04 1.2-.53 2.47-.84 3.83-.84 5.24 0 9.52 4.3 9.52 9.6 0 5.33-4.28 9.62-9.53 9.62-.63 0-1.24-.06-1.86-.18-1.2 2.13-3.48 3.55-6.04 3.55-1.1 0-2.16-.25-3.04-.68-1.24 2.83-4.06 4.8-7.33 4.8-3.4 0-6.3-2.15-7.45-5.18-.48.1-.97.15-1.5.15-4.05 0-7.36-3.33-7.36-7.44 0-2.75 1.5-5.16 3.66-6.46-.44-1.02-.7-2.2-.7-3.4 0-4.73 3.83-8.56 8.6-8.56 2.77 0 5.24 1.34 6.78 3.38z" stroke="#000" stroke-opacity="0" fill="#0d9dda"/><path d="M400.65 258.16h86.3a6 6 0 0 1 6 6v75.16a6 6 0 0 0 6 6h70.42" stroke="#3a414a" fill="none"/><path d="M400.67 258.66h-.52v-1h.52z" stroke="#3a414a" stroke-width=".05" fill="#3a414a"/><path d="M584.13 345.32l-14.26 4.64v-9.27z" stroke="#3a414a" fill="#3a414a"/><path d="M1244.87 345.32h34.78" stroke="#3a414a" fill="none"/><path d="M1244.88 345.82h-.5v-1h.5z" stroke="#3a414a" stroke-width=".05" fill="#3a414a"/><path d="M1294.4 345.32l-14.25 4.64v-9.27z" stroke="#3a414a" fill="#3a414a"/><g filter="url(#a)"><path d="M587.25 307.16a20 20 0 0 1 20-20h260a20 20 0 0 1 20 20v76.32a20 20 0 0 1-20 20h-260a20 20 0 0 1-20-20z" stroke="#747474" stroke-width="3" fill="#ffd9d9"/><path d="M702.25 365.48h183.5v3h-183.5z" fill="#e5e5e5"/><use xlink:href="#e" transform="matrix(1,0,0,1,702.2534150848583,331.8421786340986) translate(0 20.02)"/><use xlink:href="#f" transform="matrix(1,0,0,1,702.2534150848583,331.8421786340986) translate(26.74 20.02)"/><use xlink:href="#g" transform="matrix(1,0,0,1,702.2534150848583,331.8421786340986) translate(43.019999999999996 20.02)"/></g><path d="M682.25 344.66c0 20.7-16.8 37.5-37.5 37.5s-37.5-16.8-37.5-37.5 16.8-37.5 37.5-37.5 37.5 16.8 37.5 37.5z" stroke="#000" stroke-opacity="0" fill="#fff"/><path d="M641.05 332.58c1.4-1.48 3.4-2.4 5.6-2.4 2.9 0 5.47 1.63 6.8 4.04 1.18-.53 2.46-.84 3.83-.84 5.25 0 9.52 4.3 9.52 9.6 0 5.33-4.27 9.62-9.52 9.62-.62 0-1.24-.06-1.85-.18-1.2 2.13-3.5 3.55-6.05 3.55-1.1 0-2.16-.25-3.04-.68-1.23 2.83-4.06 4.8-7.32 4.8-3.4 0-6.3-2.15-7.45-5.18-.5.1-.97.15-1.5.15-4.06 0-7.37-3.33-7.37-7.44 0-2.75 1.5-5.16 3.66-6.46-.44-1.02-.7-2.2-.7-3.4 0-4.73 3.84-8.56 8.6-8.56 2.78 0 5.25 1.34 6.8 3.38z" stroke="#000" stroke-opacity="0" fill="#0d9dda"/><path d="M889.25 345.32h35.73" stroke="#3a414a" fill="none"/><path d="M889.27 345.82h-.52v-1h.52z" stroke="#3a414a" stroke-width=".05" fill="#3a414a"/><path d="M939.75 345.32l-14.27 4.64v-9.27z" stroke="#3a414a" fill="#3a414a"/><g filter="url(#a)"><path d="M98.65 400a20 20 0 0 1 20-20h260a20 20 0 0 1 20 20v76.32a20 20 0 0 1-20 20h-260a20 20 0 0 1-20-20z" stroke="#747474" stroke-width="3" fill="#cfe4ff"/><path d="M213.65 458.32h183.5v3h-183.5z" fill="#e5e5e5"/><use xlink:href="#h" transform="matrix(1,0,0,1,213.65259888342234,424.6799999999999) translate(0 20.02)"/></g><path d="M193.65 437.5c0 20.7-16.8 37.5-37.5 37.5s-37.5-16.8-37.5-37.5 16.8-37.5 37.5-37.5 37.5 16.8 37.5 37.5z" stroke="#000" stroke-opacity="0" fill="#fff"/><path d="M152.45 425.42c1.4-1.5 3.4-2.4 5.6-2.4 2.9 0 5.47 1.63 6.8 4.04 1.18-.53 2.46-.84 3.83-.84 5.25 0 9.52 4.3 9.52 9.6 0 5.33-4.27 9.62-9.52 9.62-.62 0-1.24-.06-1.86-.18-1.2 2.13-3.48 3.55-6.04 3.55-1.1 0-2.16-.24-3.04-.67-1.24 2.84-4.06 4.82-7.32 4.82-3.4 0-6.3-2.16-7.45-5.2-.5.1-.97.16-1.5.16-4.06 0-7.37-3.32-7.37-7.43 0-2.75 1.5-5.16 3.66-6.46-.44-1-.7-2.2-.7-3.4 0-4.72 3.83-8.55 8.6-8.55 2.78 0 5.25 1.33 6.8 3.37z" stroke="#000" stroke-opacity="0" fill="#0d9dda"/><path d="M400.65 438.16h86.3a6 6 0 0 0 6-6v-80.84a6 6 0 0 1 6-6h70.42" stroke="#3a414a" fill="none"/><path d="M400.67 438.66h-.52v-1h.52z" stroke="#3a414a" stroke-width=".05" fill="#3a414a"/><path d="M584.13 345.32l-14.26 4.64v-9.27z" stroke="#3a414a" fill="#3a414a"/><defs><path d="M321-708c238 0 378 113 376 353C695-123 558 0 326 0H80v-708h241zm241 353c0-168-80-245-246-246H210v493h103c166-1 249-79 249-247" id="i"/><path d="M527-603H211v189h270v101H211v206h333V0H80v-708h447v105" id="j"/><path d="M391 0H263L-6-708h141l194 559h4l190-559h139" id="k"/><g id="b"><use transform="matrix(0.02,0,0,0.02,0,0)" xlink:href="#i"/><use transform="matrix(0.02,0,0,0.02,14.8,0)" xlink:href="#j"/><use transform="matrix(0.02,0,0,0.02,26.16,0)" xlink:href="#k"/></g><filter id="a" filterUnits="objectBoundingBox" x="-.02" y="-.02" width="1.03" height="1.09"><feOffset result="offOut" in="SourceAlpha" dy="3"/><feGaussianBlur result="blurOut" in="offOut" stdDeviation="2.5"/><feColorMatrix result="colorOut" in="blurOut" values="0 0 0 0 0.018823529411764708 0 0 0 0 0.018823529411764708 0 0 0 0 0.018823529411764708 0 0 0 0.2 0"/><feBlend in="SourceGraphic" in2="colorOut"/></filter><path d="M335-708c157 0 270 77 267 237-3 159-110 238-267 242H211V0H80v-708h255zm134 238c0-136-122-140-259-133v268h113c83 0 146-47 146-135" id="l"/><path d="M328-708c153-1 267 84 267 237 0 100-48 168-143 205L621 0H471L331-240H211V0H80v-708h248zm132 237c0-87-59-132-141-132H210v263h111c82 0 139-45 139-131" id="m"/><path d="M406 19C174 19 44-123 44-354s130-373 362-373 363 142 363 373S638 19 406 19zm0-113c155 0 229-105 229-260s-74-260-229-260c-154 0-228 106-228 260S252-94 406-94" id="n"/><g id="c"><use transform="matrix(0.02,0,0,0.02,0,0)" xlink:href="#l"/><use transform="matrix(0.02,0,0,0.02,12.56,0)" xlink:href="#m"/><use transform="matrix(0.02,0,0,0.02,25.32,0)" xlink:href="#n"/><use transform="matrix(0.02,0,0,0.02,41.56,0)" xlink:href="#i"/></g><path d="M561-598H348V0H217v-598H4v-110h557v110" id="o"/><path d="M540-200C550 52 170 69 26-64l63-83c71 67 317 99 317-48 0-96-79-102-162-127-111-33-193-77-195-204-4-228 334-244 479-129l-59 85c-50-30-95-49-167-50-67 0-123 23-123 86 0 82 64 84 147 110 123 38 208 79 214 224" id="p"/><g id="d"><use transform="matrix(0.02,0,0,0.02,0,0)" xlink:href="#o"/><use transform="matrix(0.02,0,0,0.02,11.3,0)" xlink:href="#j"/><use transform="matrix(0.02,0,0,0.02,22.66,0)" xlink:href="#p"/><use transform="matrix(0.02,0,0,0.02,33.94,0)" xlink:href="#o"/></g><path d="M44-355c0-231 126-370 357-373 102-1 196 37 249 90l-74 84c-41-35-99-61-170-61-157-2-225 105-226 260 0 151 70 260 223 258 77-1 135-32 177-71l79 86C603-26 509 20 399 19 169 16 44-126 44-355" id="q"/><path d="M259-99h83V0H48v-99h83v-513H48v-96h294v96h-83v513" id="r"/><g id="e"><use transform="matrix(0.02,0,0,0.02,0,0)" xlink:href="#q"/><use transform="matrix(0.02,0,0,0.02,13.56,0)" xlink:href="#r"/></g><path d="M440-792L212 88H103l228-880h109" id="s"/><use transform="matrix(0.02,0,0,0.02,0,0)" xlink:href="#s" id="f"/><path d="M858 0H730c0-185 5-375 1-557L513 0h-98c-73-185-142-374-217-557l4 557H80v-708h192c65 176 127 355 195 528l198-528h193V0" id="t"/><path d="M405 19C170 19 44-121 44-355c0-230 129-369 360-372 102-1 196 37 249 90l-74 84c-40-35-100-62-170-62-157-2-231 105-231 260 0 177 76 265 229 265 49 0 97-10 142-29v-158H404v-100h266v329C590-3 502 19 405 19" id="u"/><g id="g"><use transform="matrix(0.02,0,0,0.02,0,0)" xlink:href="#t"/><use transform="matrix(0.02,0,0,0.02,18.76,0)" xlink:href="#j"/><use transform="matrix(0.02,0,0,0.02,30.12,0)" xlink:href="#m"/><use transform="matrix(0.02,0,0,0.02,42.88,0)" xlink:href="#u"/><use transform="matrix(0.02,0,0,0.02,57.72,0)" xlink:href="#j"/></g><path d="M80-708h149c118 176 232 354 352 528l-3-528h121V0H550C432-176 318-355 198-529l4 529H80v-708" id="v"/><path d="M527-601H211v197h275v107H211V0H80v-708h447v107" id="w"/><g id="h"><use transform="matrix(0.02,0,0,0.02,0,0)" xlink:href="#q"/><use transform="matrix(0.02,0,0,0.02,13.34,0)" xlink:href="#n"/><use transform="matrix(0.02,0,0,0.02,29.580000000000002,0)" xlink:href="#v"/><use transform="matrix(0.02,0,0,0.02,45.160000000000004,0)" xlink:href="#w"/><use transform="matrix(0.02,0,0,0.02,56.02,0)" xlink:href="#r"/><use transform="matrix(0.02,0,0,0.02,63.52,0)" xlink:href="#u"/></g></defs></g></svg>